# xmcd
#
# Track frame offsets:
#	150
#	12594
#	26881
#	48607
#	65892
#	86432
#	106057
#	125752
#	142229
#	155508
#	170108
#	192299
#	207229
#	238072
#	254437
#	271277
#	286596
#	301732
#	318559
#
# Disc length: 4458 seconds
#
# Revision: 1
# Processed by: cddbd v1.5.2PL0 Copyright (c) Steve Scherf et al.
# Submitted via: audiograbber 1.83.01
#
DISCID=22116813
DTITLE=Jools Holland and His Rhythm and Blues Orchestra - Rockinghorse
DYEAR=2010
DGENRE=R&B
TTITLE0=Whirlaway (Piano Duet With Allen Toussaint)
TTITLE1=Roll Out Of This Hole (With Ruby Turner)
TTITLE2=Father Time (With Louise Marshall)
TTITLE3=Got My Mojo Working (With Rosie Mae)
TTITLE4=I've Got News For You (With Michael McDonald)
TTITLE5=Enchanted Castle (With Louise Marshall)
TTITLE6=London Belongs To Me (With Chas and Dave)
TTITLE7=A String Of Pearls (Instrumental)
TTITLE8=Rockinghorse
TTITLE9=Remember Me (With Ruby Turner)
TTITLE10=Rock-A-Bye The Boogie
TTITLE11=This Train (With Ruby Turner)
TTITLE12=Blues For New Orleans (Feat. Booker T)
TTITLE13='Taint Nobody's Bizness If I Do (With Sam Brown)
TTITLE14=Mercy, Mercy, Mercy (Feat. David Sanborn)
TTITLE15=The Wicked And The Weak
TTITLE16=The Man That Got Away (With Alison Moyet)
TTITLE17=What A Wondeful World (With Rico Rodriguez)
TTITLE18=You Are So Beautiful (With Ruby Turner)
EXTD=
EXTT0=
EXTT1=
EXTT2=
EXTT3=
EXTT4=
EXTT5=
EXTT6=
EXTT7=
EXTT8=
EXTT9=
EXTT10=
EXTT11=
EXTT12=
EXTT13=
EXTT14=
EXTT15=
EXTT16=
EXTT17=
EXTT18=
PLAYORDER=
